{
    "accessors" : [
        {
            "bufferView" : 0,
            "componentType" : 5123,
            "count" : 4692,
            "max" : [
                783
            ],
            "min" : [
                0
            ],
            "type" : "SCALAR"
        },
        {
            "bufferView" : 1,
            "componentType" : 5126,
            "count" : 784,
            "max" : [
                0.40625,
                0.20000000298023224,
                0.90625
            ],
            "min" : [
                -0.40625,
                0.0,
                0.0312499962747097
            ],
            "type" : "VEC3"
        },
        {
            "bufferView" : 2,
            "componentType" : 5126,
            "count" : 784,
            "max" : [
                0.9238563179969788,
                1.0,
                0.9238563179969788
            ],
            "min" : [
                -0.9238563179969788,
                -1.0,
                -0.9238563179969788
            ],
            "type" : "VEC3"
        }
    ],
    "asset" : {
        "generator" : "Khronos Blender glTF 2.0 exporter",
        "version" : "2.0"
    },
    "bufferViews" : [
        {
            "buffer" : 0,
            "byteLength" : 9384,
            "byteOffset" : 0,
            "target" : 34963
        },
        {
            "buffer" : 0,
            "byteLength" : 9408,
            "byteOffset" : 9384,
            "target" : 34962
        },
        {
            "buffer" : 0,
            "byteLength" : 9408,
            "byteOffset" : 18792,
            "target" : 34962
        }
    ],
    "buffers" : [
        {
            "byteLength" : 28200,
            "uri" : "peace_1.bin"
        }
    ],
    "meshes" : [
        {
            "name" : "Plane.000",
            "primitives" : [
                {
                    "attributes" : {
                        "NORMAL" : 2,
                        "POSITION" : 1
                    },
                    "indices" : 0
                }
            ]
        }
    ],
    "nodes" : [
        {
            "mesh" : 0,
            "name" : "Plane.000",
            "rotation" : [
                0.5,
                -0.5000000596046448,
                -0.5,
                0.4999999701976776
            ],
            "scale" : [
                3.0,
                1.0,
                3.0
            ]
        }
    ],
    "scene" : 0,
    "scenes" : [
        {
            "name" : "Scene",
            "nodes" : [
                0
            ]
        }
    ]
}
