{
    "accessors" : [
        {
            "bufferView" : 0,
            "componentType" : 5123,
            "count" : 5700,
            "max" : [
                2571
            ],
            "min" : [
                0
            ],
            "type" : "SCALAR"
        },
        {
            "bufferView" : 1,
            "componentType" : 5126,
            "count" : 2572,
            "max" : [
                0.84375,
                0.19999970495700836,
                0.46875
            ],
            "min" : [
                0.03125,
                0.0,
                -0.0312500037252903
            ],
            "type" : "VEC3"
        },
        {
            "bufferView" : 2,
            "componentType" : 5126,
            "count" : 2572,
            "max" : [
                1.0,
                1.0,
                1.0
            ],
            "min" : [
                -1.0,
                -1.0,
                -1.0
            ],
            "type" : "VEC3"
        }
    ],
    "asset" : {
        "generator" : "Khronos Blender glTF 2.0 exporter",
        "version" : "2.0"
    },
    "bufferViews" : [
        {
            "buffer" : 0,
            "byteLength" : 11400,
            "byteOffset" : 0,
            "target" : 34963
        },
        {
            "buffer" : 0,
            "byteLength" : 30864,
            "byteOffset" : 11400,
            "target" : 34962
        },
        {
            "buffer" : 0,
            "byteLength" : 30864,
            "byteOffset" : 42264,
            "target" : 34962
        }
    ],
    "buffers" : [
        {
            "byteLength" : 73128,
            "uri" : "peace_7.bin"
        }
    ],
    "meshes" : [
        {
            "name" : "Plane.013",
            "primitives" : [
                {
                    "attributes" : {
                        "NORMAL" : 2,
                        "POSITION" : 1
                    },
                    "indices" : 0
                }
            ]
        }
    ],
    "nodes" : [
        {
            "name" : "Camera",
            "rotation" : [
                0.483536034822464,
                0.33687159419059753,
                -0.20870360732078552,
                0.7804827094078064
            ],
            "translation" : [
                7.481131553649902,
                5.34366512298584,
                6.5076398849487305
            ]
        },
        {
            "name" : "Lamp",
            "rotation" : [
                0.16907575726509094,
                0.7558802962303162,
                -0.27217137813568115,
                0.570947527885437
            ],
            "scale" : [
                1.0,
                1.0,
                0.9999999403953552
            ],
            "translation" : [
                4.076245307922363,
                5.903861999511719,
                -1.0054539442062378
            ]
        },
        {
            "mesh" : 0,
            "name" : "Plane.012",
            "rotation" : [
                -0.5000000596046448,
                0.5,
                -0.5,
                0.5000000596046448
            ],
            "scale" : [
                3.0,
                1.0,
                3.0
            ],
            "translation" : [
                -0.9354910254478455,
                1.2576701641082764,
                -0.0
            ]
        }
    ],
    "scene" : 0,
    "scenes" : [
        {
            "name" : "Scene",
            "nodes" : [
                1,
                0,
                2
            ]
        }
    ]
}
